<svg height="479pt" viewBox="0 -15 479.99829 479" width="479pt" xmlns="http://www.w3.org/2000/svg"><path d="m432 288.496094v48h-104v-21.480469c15.171875-7.164063 26.3125-20.773437 30.347656-37.058594 4.03125-16.285156.527344-33.523437-9.550781-46.941406l88.855469-88.863281c3.125-3.121094 3.125-8.1875 0-11.3125l-128-128c-3.121094-3.121094-8.1875-3.121094-11.308594 0l-296 296c-2.2890625 2.289062-2.972656 5.730468-1.734375 8.71875 1.238281 2.988281 4.152344 4.9375 7.390625 4.9375h76.6875l85.65625 85.65625c3.121094 3.125 8.1875 3.125 11.308594 0l88.851562-88.855469c2.964844 2.230469 6.144532 4.15625 9.496094 5.753906v69.445313h39.4375l112.5625 15.007812v48.992188h48v-160zm-404.691406 8 276.691406-276.6875 28.6875 28.6875-248 248zm241.335937-8-4.238281 4.242187-5.65625 5.65625-82.75 82.789063-76.691406-76.6875 244.691406-244.6875 76.6875 76.6875-82.753906 82.753906zm43.355469 48v32h-16v-48h16zm-8-32c-7.847656.023437-15.527344-2.28125-22.066406-6.621094l27.71875-27.722656 27.722656-27.71875c8.121094 12.285156 8.839844 28.039062 1.863281 41.007812-6.972656 12.972656-20.511719 21.058594-35.238281 21.054688zm128 78.855468-104-13.863281v-16.992187h104zm32 49.144532h-16v-128h16zm0 0"/></svg>