<svg height="512pt" viewBox="0 -36 512 512" width="512pt" xmlns="http://www.w3.org/2000/svg"><path d="m511.992188 15c0-8.285156-6.714844-15-15-15h-481.992188c-8.285156 0-15 6.714844-15 15v338.195312c0 8.28125 6.714844 14.996094 15 14.996094h151.003906v42.007813h-25c-8.28125 0-15 6.714843-15 15 0 8.285156 6.71875 15 15 15h229.996094c8.285156 0 15-6.714844 15-15 0-8.285157-6.714844-15-15-15h-25v-42.007813h151c8.285156 0 15-6.714844 15-14.996094zm-30 15v227.136719h-451.992188v-227.136719zm-165.988282 380.199219h-120v-42.007813h120zm135.996094-72.003907v-6.0625c0-8.28125-6.714844-15-15-15-8.28125 0-15 6.71875-15 15v6.0625h-30v-6.0625c0-8.28125-6.714844-15-14.996094-15-8.285156 0-15 6.71875-15 15v6.0625h-30v-6.0625c0-8.28125-6.71875-15-15-15-8.285156 0-15 6.71875-15 15v6.0625h-271.996094v-51.0625h451.984376v51.0625zm0 0"/><path d="m90.007812 192.875c6.242188 0 12.480469-2.558594 12.480469-7.679688v-43.359374h31.839844v43.359374c0 5.121094 6.242187 7.679688 12.480469 7.679688 6.242187 0 12.480468-2.558594 12.480468-7.679688v-101.757812c0-5.28125-6.238281-7.523438-12.480468-7.523438-6.238282 0-12.480469 2.242188-12.480469 7.523438v39.199219h-31.839844v-39.199219c0-5.28125-6.238281-7.523438-12.480469-7.523438-6.238281 0-12.476562 2.242188-12.476562 7.523438v101.757812c0 5.121094 6.238281 7.679688 12.476562 7.679688zm0 0"/><path d="m193.847656 192.875h56.960938c5.277344 0 7.519531-5.597656 7.519531-10.71875 0-5.921875-2.71875-11.039062-7.519531-11.039062h-42.882813v-27.203126h24c5.28125 0 7.519531-5.117187 7.519531-9.4375 0-5.121093-2.71875-9.761718-7.519531-9.761718h-24v-27.039063h42.882813c4.800781 0 7.519531-5.121093 7.519531-11.039062 0-5.121094-2.242187-10.722657-7.519531-10.722657h-56.960938c-5.441406 0-10.882812 2.5625-10.882812 7.679688v101.601562c0 5.121094 5.441406 7.679688 10.882812 7.679688zm0 0"/><path d="m286.480469 192.875h50.5625c4.800781 0 7.199219-5.4375 7.199219-10.878906s-2.398438-10.878906-7.199219-10.878906h-36.480469v-87.683594c0-5.277344-6.238281-7.519532-12.480469-7.519532-6.238281 0-12.476562 2.238282-12.476562 7.519532v101.761718c-.003907 5.121094 5.4375 7.679688 10.875 7.679688zm0 0"/><path d="m373.199219 192.875c6.238281 0 12.480469-2.558594 12.480469-7.679688v-34.5625h15.839843c22.078125 0 39.359375-10.238281 39.359375-37.117187v-.800781c0-26.878906-16.640625-36.800782-37.761718-36.800782h-33.117188c-5.601562 0-9.28125 3.519532-9.28125 7.519532v101.761718c0 5.121094 6.242188 7.679688 12.480469 7.679688zm12.480469-95.199219h15.839843c8.960938 0 14.398438 5.121094 14.398438 16v1.761719c0 10.878906-5.4375 16-14.398438 16h-15.839843zm0 0"/></svg>