<svg height="512" viewBox="0 0 512 512" width="512" xmlns="http://www.w3.org/2000/svg"><path d="m440 16h-368a24.027 24.027 0 0 0 -24 24v224a24.027 24.027 0 0 0 24 24h131.869l-19.221 44.848a8 8 0 0 0 7.352 11.152h128a8 8 0 0 0 7.352-11.152l-19.221-44.848h131.869a24.027 24.027 0 0 0 24-24v-224a24.027 24.027 0 0 0 -24-24zm-368 16h368a8.011 8.011 0 0 1 8 8v200h-384v-200a8.011 8.011 0 0 1 8-8zm235.867 296h-103.734l17.14-40h69.454zm140.133-64a8.011 8.011 0 0 1 -8 8h-368a8.011 8.011 0 0 1 -8-8v-8h384z"/><path d="m352 360h-288a8 8 0 0 0 -8 8v120a8 8 0 0 0 8 8h288a8 8 0 0 0 8-8v-120a8 8 0 0 0 -8-8zm-8 120h-272v-104h272z"/><path d="m416 384a40.047 40.047 0 0 0 -40 40v32a40 40 0 0 0 80 0v-32a40.047 40.047 0 0 0 -40-40zm24 72a24 24 0 0 1 -48 0v-32a23.96 23.96 0 0 1 16-22.526v38.526h16v-38.526a23.96 23.96 0 0 1 16 22.526z"/><path d="m152 456h88v16h-88z"/><path d="m186.344 205.656 11.312-11.312-58.344-58.344 58.344-58.344-11.312-11.312-64 64a8 8 0 0 0 0 11.312z"/><path d="m325.656 205.656 64-64a8 8 0 0 0 0-11.312l-64-64-11.312 11.312 58.344 58.344-58.344 58.344z"/><path d="m169.837 127.998h172.325v16.005h-172.325z" transform="matrix(.371 -.928 .928 .371 34.634 323.161)"/><circle cx="328" cy="440" r="8"/><circle cx="88" cy="440" r="8"/><circle cx="112" cy="440" r="8"/><circle cx="136" cy="440" r="8"/><circle cx="88" cy="464" r="8"/><circle cx="112" cy="464" r="8"/><circle cx="136" cy="464" r="8"/><circle cx="160" cy="440" r="8"/><circle cx="184" cy="440" r="8"/><circle cx="208" cy="440" r="8"/><circle cx="232" cy="440" r="8"/><circle cx="256" cy="440" r="8"/><circle cx="256" cy="464" r="8"/><circle cx="280" cy="440" r="8"/><circle cx="304" cy="440" r="8"/><circle cx="328" cy="464" r="8"/><circle cx="304" cy="464" r="8"/><circle cx="280" cy="464" r="8"/><circle cx="328" cy="416" r="8"/><circle cx="88" cy="416" r="8"/><circle cx="112" cy="416" r="8"/><circle cx="136" cy="416" r="8"/><circle cx="160" cy="416" r="8"/><circle cx="184" cy="416" r="8"/><circle cx="208" cy="416" r="8"/><circle cx="232" cy="416" r="8"/><circle cx="256" cy="416" r="8"/><circle cx="280" cy="416" r="8"/><circle cx="304" cy="416" r="8"/><circle cx="328" cy="392" r="8"/><circle cx="88" cy="392" r="8"/><circle cx="112" cy="392" r="8"/><circle cx="136" cy="392" r="8"/><circle cx="160" cy="392" r="8"/><circle cx="184" cy="392" r="8"/><circle cx="208" cy="392" r="8"/><circle cx="232" cy="392" r="8"/><circle cx="256" cy="392" r="8"/><circle cx="280" cy="392" r="8"/><circle cx="304" cy="392" r="8"/></svg>