<?xml version="1.0" encoding="iso-8859-1"?>
<!-- Generator: Adobe Illustrator 19.0.0, SVG Export Plug-In . SVG Version: 6.00 Build 0)  -->
<svg version="1.1" id="Capa_1" xmlns="http://www.w3.org/2000/svg" xmlns:xlink="http://www.w3.org/1999/xlink" x="0px" y="0px"
	 viewBox="0 0 512 512" style="enable-background:new 0 0 512 512;" xml:space="preserve">
<g>
	<g>
		<path d="M476.72,212.264c-5.74-29.025-17.251-56.792-33.754-81.427c10.493-17.308,8.281-40.213-6.655-55.149
			c-14.935-14.936-37.841-17.149-55.149-6.655C356.527,52.531,328.76,41.02,299.735,35.28c-1.894-7.935-5.879-15.29-11.68-21.358
			C279.474,4.944,268.089,0,256,0s-23.474,4.944-32.056,13.921c-5.801,6.069-9.786,13.424-11.68,21.358
			c-29.025,5.741-56.792,17.251-81.427,33.753c-17.308-10.494-40.214-8.281-55.149,6.655c-14.936,14.936-17.148,37.841-6.655,55.149
			c-16.503,24.635-28.013,52.402-33.754,81.427C15.767,216.922,0,234.398,0,256c0,21.582,15.747,39.073,35.28,43.736
			c5.741,29.025,17.251,56.792,33.754,81.427c-10.493,17.308-8.281,40.213,6.655,55.149c14.89,14.891,37.769,17.193,55.149,6.655
			c24.635,16.502,52.403,28.013,81.427,33.753C216.926,496.247,234.41,512,256,512c21.58,0,39.072-15.744,43.736-35.28
			c29.025-5.741,56.792-17.251,81.427-33.753c17.394,10.546,40.269,8.226,55.149-6.655c14.936-14.936,17.148-37.841,6.655-55.149
			c16.503-24.635,28.013-52.402,33.754-81.427C496.233,295.078,512,277.602,512,256C512,234.418,496.253,216.927,476.72,212.264z
			 M393.886,96.901c5.849-5.849,15.364-5.848,21.213,0c5.848,5.849,5.848,15.365,0,21.213c-5.864,5.863-15.35,5.863-21.213,0
			C388.023,112.25,388.024,102.764,393.886,96.901z M271.001,88.42c11.307-4.011,20.55-12.417,25.659-23.159
			c23.233,4.945,45.485,14.168,65.456,27.131c-3.977,11.205-3.383,23.677,1.775,34.504l-48.185,48.185
			c-2.486-25.267-20.706-45.983-44.705-52.183V88.42z M256,241c41.355,0,75,33.645,75,75v15H181v-15
			C181,274.645,214.645,241,256,241z M226,181c0-16.542,13.458-30,30-30s30,13.458,30,30s-13.458,30-30,30S226,197.542,226,181z
			 M256,30c7.991,0,15,7.477,15,16c0,8.271-6.729,15-15,15s-15-6.729-15-15C241,37.477,248.009,30,256,30z M149.885,92.393
			c19.971-12.963,42.223-22.186,65.456-27.131C220.449,76.003,229.692,84.409,241,88.42v34.479
			c-23.999,6.2-42.22,26.917-44.705,52.183l-48.185-48.185C153.268,116.07,153.862,103.597,149.885,92.393z M96.901,96.901
			c5.85-5.849,15.365-5.848,21.213,0c5.863,5.864,5.863,15.35,0,21.213c-5.864,5.863-15.35,5.862-21.213,0
			C91.053,112.266,91.053,102.75,96.901,96.901z M92.392,149.884c11.273,4.001,23.703,3.371,34.504-1.775l76.844,76.844
			c-7.719,4.448-14.818,9.854-21.144,16.047H88.42c-4.011-11.309-12.417-20.551-23.159-25.661
			C70.206,192.107,79.429,169.855,92.392,149.884z M46,271c-8.523,0-16-7.009-16-15c0-7.991,7.477-15,16-15c8.271,0,15,6.729,15,15
			S54.271,271,46,271z M118.114,415.099c-5.848,5.848-15.364,5.849-21.213,0c-5.848-5.849-5.848-15.365,0-21.213
			c5.864-5.863,15.35-5.863,21.213,0C123.977,399.75,123.976,409.236,118.114,415.099z M126.896,363.891
			c-10.827-5.158-23.3-5.752-34.504-1.775c-12.963-19.971-22.186-42.223-27.131-65.455c10.742-5.11,19.148-14.352,23.159-25.661
			h72.725c-6.5,13.646-10.145,28.905-10.145,45v23.787L126.896,363.891z M215.34,446.739c-23.233-4.945-45.485-14.168-65.456-27.131
			c3.977-11.205,3.383-23.677-1.775-34.504L172.213,361H241v62.58C229.692,427.591,220.449,435.997,215.34,446.739z M256,482
			c-7.991,0-15-7.477-15-16c0-8.271,6.729-15,15-15s15,6.729,15,15C271,474.523,263.991,482,256,482z M362.116,419.608
			c-19.971,12.963-42.223,22.186-65.456,27.131c-5.109-10.742-14.352-19.148-25.66-23.159V361h68.787l24.104,24.104
			C358.733,395.931,358.139,408.404,362.116,419.608z M415.099,415.099c-5.849,5.848-15.365,5.847-21.213,0
			c-5.863-5.864-5.863-15.35,0-21.213c5.864-5.863,15.35-5.862,21.213,0C420.947,399.734,420.947,409.25,415.099,415.099z
			 M419.608,362.116c-11.204-3.977-23.677-3.383-34.504,1.775L361,339.787V316c0-16.095-3.645-31.354-10.145-45h72.725
			c4.011,11.309,12.417,20.551,23.159,25.661C441.794,319.893,432.571,342.145,419.608,362.116z M423.58,241h-94.177
			c-6.326-6.192-13.425-11.599-21.144-16.047l76.844-76.844c10.8,5.145,23.23,5.777,34.505,1.775
			c12.963,19.971,22.186,42.223,27.131,65.455C435.997,220.448,427.591,229.691,423.58,241z M466,271c-8.271,0-15-6.729-15-15
			s6.729-15,15-15c8.523,0,16,7.009,16,15C482,263.991,474.523,271,466,271z"/>
	</g>
</g>
<g>
</g>
<g>
</g>
<g>
</g>
<g>
</g>
<g>
</g>
<g>
</g>
<g>
</g>
<g>
</g>
<g>
</g>
<g>
</g>
<g>
</g>
<g>
</g>
<g>
</g>
<g>
</g>
<g>
</g>
</svg>
